<?xml version="1.0" encoding="utf-8"?>
<!-- Generator: Adobe Illustrator 22.0.1, SVG Export Plug-In . SVG Version: 6.00 Build 0)  -->
<svg version="1.1" id="S-Logo-01" xmlns="http://www.w3.org/2000/svg" xmlns:xlink="http://www.w3.org/1999/xlink" x="0px" y="0px"
	 viewBox="0 0 3000 3000" style="enable-background:new 0 0 3000 3000;" xml:space="preserve">
<style type="text/css">
	.st0{fill:url(#SVGID_1_);}
	.st1{fill:url(#SVGID_2_);}
	.st2{fill:url(#SVGID_3_);}
	.st3{fill:url(#SVGID_4_);}
	.st4{fill:url(#SVGID_5_);}
</style>
<g>
	<g>
		<linearGradient id="SVGID_1_" gradientUnits="userSpaceOnUse" x1="1639.2678" y1="1337.6798" x2="1528.0629" y2="1273.4756">
			<stop  offset="0" style="stop-color:#01ED5E"/>
			<stop  offset="1" style="stop-color:#0575E6"/>
		</linearGradient>
		<rect x="1512.7" y="1300" class="st0" width="141.8" height="11.2"/>
	</g>
	<g>
		<linearGradient id="SVGID_2_" gradientUnits="userSpaceOnUse" x1="1605.6024" y1="1364.4912" x2="1550.5729" y2="1332.7198">
			<stop  offset="0" style="stop-color:#01ED5E"/>
			<stop  offset="1" style="stop-color:#0575E6"/>
		</linearGradient>
		<rect x="1544.6" y="1343" class="st1" width="66.9" height="11.2"/>
	</g>
	<g>
		<linearGradient id="SVGID_3_" gradientUnits="userSpaceOnUse" x1="1471.9371" y1="1726.5244" x2="1360.7322" y2="1662.3202">
			<stop  offset="0" style="stop-color:#01ED5E"/>
			<stop  offset="1" style="stop-color:#0575E6"/>
		</linearGradient>
		<rect x="1345.4" y="1688.8" class="st2" width="141.8" height="11.2"/>
	</g>
	<g>
		<linearGradient id="SVGID_4_" gradientUnits="userSpaceOnUse" x1="1702.5388" y1="1616.9358" x2="1297.4612" y2="1383.0642">
			<stop  offset="0" style="stop-color:#01ED5E"/>
			<stop  offset="1" style="stop-color:#0575E6"/>
		</linearGradient>
		<path class="st3" d="M1654.6,1331.9v-11.2H1500V1300h-154.6v141.8h11.2v-130.7h9.6v143.4h-20.7v19.1h20.7v43h43v20.7h170.5v87.6
			h-191.2v11.2h78.1v20.7h113.1v11.2h-60.6v11.2h60.6v9.6h-68.5v-20.7h-165.7v11.2H1500v20.7h154.6v-70.1h-11.2v59h-9.6v-71.7h20.7
			v-154.6h-141.8v11.2h130.7v9.6H1500v-20.7h-79.7v-87.6h191.2v-11.2h-78.1V1343h-156.2v-11.2h103.6v-11.2h-103.6v-9.6h111.6v20.7
			H1654.6z M1579.7,1645.8h-102v-9.6h102V1645.8z M1420.3,1354.2h102v9.6h-102V1354.2z M1388.4,1505.6h-11.2v-11.2h11.2V1505.6z
			 M1388.4,1483.3h-11.2v-9.6h11.2V1483.3z M1409.2,1505.6h-9.6v-11.2h9.6V1505.6z M1409.2,1483.3h-9.6v-9.6h9.6V1483.3z
			 M1409.2,1462.5h-9.6v-30.3h9.6V1462.5z M1600.4,1688.8h-9.6v-9.6h9.6V1688.8z M1622.7,1688.8h-11.2v-9.6h11.2V1688.8z
			 M1622.7,1668.1h-11.2v-6.4h-11.2v6.4h-9.6V1657h31.9V1668.1z M1590.8,1639.4v-102h9.6v102H1590.8z M1611.6,1494.4h11.2V1598h11.2
			v-103.6h9.6V1606h-20.7v39.8h-11.2V1494.4z M1420.3,1494.4h60.6v-11.2h-60.6v-9.6h68.5v20.7h111.6v11.2h-55.8v11.2h55.8v9.6h-66.9
			v-20.7h-113.1V1494.4z M1420.3,1516.7h102v9.6h-102V1516.7z M1388.4,1354.2v55.8h11.2v-55.8h9.6v66.9h-20.7v41.4h-11.2v-108.4
			H1388.4z"/>
	</g>
	<g>
		<linearGradient id="SVGID_5_" gradientUnits="userSpaceOnUse" x1="1449.4271" y1="1667.2802" x2="1394.3976" y2="1635.5088">
			<stop  offset="0" style="stop-color:#01ED5E"/>
			<stop  offset="1" style="stop-color:#0575E6"/>
		</linearGradient>
		<rect x="1388.4" y="1645.8" class="st4" width="66.9" height="11.2"/>
	</g>
</g>
</svg>
